<?xml version="1.0" encoding="UTF-8"?>
<svg version="1.1" xmlns="http://www.w3.org/2000/svg" width="128" height="128">
<path d="M0 0 C1.42956779 -0.0098568 1.42956779 -0.0098568 2.88801575 -0.01991272 C6.05278599 -0.03967694 9.21750865 -0.05131704 12.38232422 -0.0612793 C13.46272854 -0.06535482 14.54313286 -0.06943035 15.6562767 -0.07362938 C21.3777828 -0.09450628 27.09926481 -0.10879937 32.82080078 -0.11816406 C38.72556898 -0.12921466 44.62995889 -0.16359463 50.53459358 -0.20333576 C55.07802012 -0.2295124 59.62135683 -0.23785699 64.16485214 -0.24144554 C66.34089581 -0.246311 68.51693547 -0.25792378 70.69290543 -0.27648354 C73.74479107 -0.30089017 76.79570242 -0.29990657 79.84765625 -0.29296875 C81.18838448 -0.31218384 81.18838448 -0.31218384 82.55619812 -0.33178711 C89.39468374 -0.2753316 94.95562443 1.3043544 99.87060547 6.24731445 C100.32564453 6.92536133 100.78068359 7.6034082 101.24951172 8.30200195 C101.72259766 8.98520508 102.19568359 9.6684082 102.68310547 10.37231445 C105.32291027 14.59234842 104.97460617 18.51071525 104.98901367 23.36499023 C104.99558487 24.31803543 105.00215607 25.27108063 105.00892639 26.25300598 C105.02869062 29.41777622 105.04033071 32.58249888 105.05029297 35.74731445 C105.0543685 36.82771877 105.05844402 37.90812309 105.06264305 39.02126694 C105.08351995 44.74277303 105.09781305 50.46425504 105.10717773 56.18579102 C105.11822833 62.09055921 105.1526083 67.99494913 105.19234943 73.89958382 C105.21852607 78.44301035 105.22687067 82.98634706 105.23045921 87.52984238 C105.23532467 89.70588604 105.24693745 91.88192571 105.26549721 94.05789566 C105.28990385 97.1097813 105.28892024 100.16069266 105.28198242 103.21264648 C105.30119751 104.55337471 105.30119751 104.55337471 105.32080078 105.92118835 C105.26435853 112.75806835 103.67069802 118.28539412 98.77685547 123.2355957 C98.10783203 123.69063477 97.43880859 124.14567383 96.74951172 124.61450195 C96.07791016 125.08758789 95.40630859 125.56067383 94.71435547 126.0480957 C91.7113052 127.83019329 89.20359728 128.30358057 85.78462219 128.32417297 C84.96747238 128.33132828 84.15032257 128.33848358 83.30841064 128.34585571 C82.41539246 128.34854462 81.52237427 128.35123352 80.60229492 128.35400391 C79.65885727 128.3605751 78.71541962 128.3671463 77.74339294 128.37391663 C74.61652548 128.3936505 71.48970609 128.40531329 68.36279297 128.4152832 C66.76011094 128.42139649 66.76011094 128.42139649 65.1250515 128.42763329 C59.4683794 128.44849575 53.81173156 128.46279596 48.1550293 128.47216797 C42.31866928 128.48322456 36.48269134 128.51761562 30.64646626 128.55733967 C26.153654 128.58351549 21.66093257 128.59186075 17.16805077 128.59544945 C15.01712658 128.60031393 12.86620641 128.61192394 10.71535683 128.63048744 C7.69949935 128.65489582 4.68462767 128.65391037 1.66870117 128.64697266 C0.34435562 128.66618774 0.34435562 128.66618774 -1.00674438 128.68579102 C-7.80949409 128.62896442 -13.32337821 127.00899787 -18.24658203 122.1418457 C-18.92914063 121.13831055 -18.92914063 121.13831055 -19.62548828 120.11450195 C-20.33511719 119.10709961 -20.33511719 119.10709961 -21.05908203 118.0793457 C-22.84117962 115.07629544 -23.31456689 112.56858751 -23.3351593 109.14961243 C-23.34231461 108.33246262 -23.34946991 107.51531281 -23.35684204 106.67340088 C-23.35953094 105.78038269 -23.36221985 104.8873645 -23.36499023 103.96728516 C-23.37156143 103.0238475 -23.37813263 102.08040985 -23.38490295 101.10838318 C-23.40463683 97.98151572 -23.41629962 94.85469632 -23.42626953 91.7277832 C-23.43034506 90.65932852 -23.43442059 89.59087383 -23.43861961 88.49004173 C-23.45948208 82.83336963 -23.47378229 77.17672179 -23.4831543 71.52001953 C-23.49421089 65.68365951 -23.52860195 59.84768157 -23.568326 54.01145649 C-23.59450182 49.51864423 -23.60284708 45.0259228 -23.60643578 40.533041 C-23.61130026 38.38211681 -23.62291027 36.23119664 -23.64147377 34.08034706 C-23.66588215 31.06448959 -23.6648967 28.0496179 -23.65795898 25.03369141 C-23.67076904 24.15079437 -23.6835791 23.26789734 -23.69677734 22.35824585 C-23.63993592 15.55372096 -22.0337172 10.00662297 -17.11767578 5.1184082 C-16.43962891 4.66336914 -15.76158203 4.20833008 -15.06298828 3.73950195 C-14.03818359 3.02987305 -14.03818359 3.02987305 -12.99267578 2.3059082 C-8.77264181 -0.3338966 -4.85427498 0.0144075 0 0 Z M11.81201172 28.17700195 C11.81201172 52.59700195 11.81201172 77.01700195 11.81201172 102.17700195 C18.37076172 102.23887695 24.92951172 102.30075195 31.68701172 102.36450195 C34.76118408 102.40546997 34.76118408 102.40546997 37.89746094 102.44726562 C39.55386774 102.45604181 41.2102811 102.46368305 42.86669922 102.4699707 C43.70080322 102.4853186 44.53490723 102.5006665 45.39428711 102.51647949 C53.95070947 102.52021158 62.07051112 100.91840111 68.40576172 94.8371582 C72.32535397 90.2098618 73.33380756 85.32988346 73.09326172 79.4465332 C72.43271827 74.11631458 71.00341075 69.87689681 66.87451172 66.30200195 C64.52196913 64.66962547 62.3705436 63.40377102 59.81201172 62.17700195 C60.36630859 61.74129883 60.92060547 61.3055957 61.49169922 60.85668945 C67.38671034 56.11907212 67.38671034 56.11907212 69.81201172 49.17700195 C70.12880316 43.30646049 69.3841295 39.25688165 65.56201172 34.67700195 C60.11354309 29.16195326 54.14277654 28.15352208 46.55078125 28.06347656 C44.93212028 28.06372384 43.31345303 28.06913987 41.69482422 28.0793457 C40.55388306 28.08085632 40.55388306 28.08085632 39.38989258 28.08239746 C36.5722501 28.08759503 33.75462925 28.10155608 30.93701172 28.11450195 C24.62576172 28.13512695 18.31451172 28.15575195 11.81201172 28.17700195 Z " fill="#FFDA6A" transform="translate(23.18798828125,-0.177001953125)"/>
<path d="M0 0 C4.0209236 -0.09219952 8.03913024 -0.17171538 12.06054688 -0.21972656 C13.42623368 -0.23975319 14.79183569 -0.26698332 16.15722656 -0.30175781 C18.12787102 -0.35066432 20.09915983 -0.37091347 22.0703125 -0.390625 C23.84559326 -0.4220459 23.84559326 -0.4220459 25.65673828 -0.45410156 C30.22082982 0.16582032 33.5153164 2.11040269 36.375 5.75 C37.67051871 10.41386736 37.69344047 14.43975894 35.75 18.8125 C33.90243585 21.12195519 32.54425612 22.48824597 30 24 C26.79199219 24.34057617 26.79199219 24.34057617 23.046875 24.29296875 C22.05654266 24.28660149 22.05654266 24.28660149 21.04620361 24.28010559 C18.94704609 24.26337435 16.84886504 24.22573551 14.75 24.1875 C13.32293058 24.17244584 11.89584604 24.15875871 10.46875 24.14648438 C6.97849207 24.11604608 3.49033293 24.05732299 0 24 C0 16.08 0 8.16 0 0 Z " fill="#FFD96B" transform="translate(47,68)"/>
<path d="M0 0 C4.39620224 -0.0809117 8.79091597 -0.14046573 13.1875 -0.1875 C14.43337891 -0.21263672 15.67925781 -0.23777344 16.96289062 -0.26367188 C18.16494141 -0.27333984 19.36699219 -0.28300781 20.60546875 -0.29296875 C21.71043701 -0.3086792 22.81540527 -0.32438965 23.95385742 -0.34057617 C27.39484247 0.04414565 29.23483436 0.95306722 32 3 C34.29142158 6.64544343 34.26949028 9.93384875 33.60546875 14.06640625 C32.57447486 17.35893514 30.7046904 18.9714822 28 21 C24.45830812 21.94794418 21.13512804 22.11807334 17.48046875 22.09765625 C16.45888672 22.09443359 15.43730469 22.09121094 14.38476562 22.08789062 C13.32966797 22.07951172 12.27457031 22.07113281 11.1875 22.0625 C10.11306641 22.05798828 9.03863281 22.05347656 7.93164062 22.04882812 C5.28773643 22.03707744 2.643861 22.019143 0 22 C0 14.74 0 7.48 0 0 Z " fill="#FFDA6A" transform="translate(47,38)"/>
</svg>
